<svg width="316" height="100" viewBox="0 0 800 244" fill="none" xmlns="http://www.w3.org/2000/svg">
<path d="M432.573 188.642C442.275 188.642 442.773 169.342 442.773 165.482C442.773 161.622 442.275 142.277 432.573 142.277C422.872 142.277 422.328 161.577 422.328 165.482C422.328 169.388 422.826 188.642 432.573 188.642ZM432.573 154.72C434.084 161.799 434.084 169.12 432.573 176.2C431.002 169.126 431.002 161.793 432.573 154.72Z" fill="white"/>
<path d="M38.4882 188.733C40.2066 188.733 41.9081 188.394 43.4951 187.733C45.0821 187.073 46.5234 186.106 47.7363 184.887C48.9493 183.667 49.91 182.22 50.5635 180.628C51.217 179.036 51.5503 177.33 51.5443 175.609V155.31C51.3471 151.945 49.8738 148.783 47.4257 146.47C44.9776 144.157 41.7398 142.869 38.3749 142.869C35.0099 142.869 31.7722 144.157 29.3241 146.47C26.876 148.783 25.4026 151.945 25.2055 155.31V175.609C25.2053 177.348 25.5501 179.07 26.2198 180.674C26.8895 182.278 27.8708 183.733 29.1067 184.954C30.3425 186.175 31.8083 187.138 33.4188 187.787C35.0293 188.436 36.7525 188.757 38.4882 188.733V188.733ZM34.4535 155.31C34.4593 154.765 34.5736 154.227 34.7898 153.728C35.0059 153.228 35.3196 152.777 35.7124 152.4C36.1052 152.024 36.5691 151.73 37.0769 151.535C37.5847 151.341 38.1262 151.25 38.6696 151.268C39.1973 151.268 39.7198 151.373 40.2068 151.577C40.6937 151.78 41.1356 152.079 41.5066 152.455C41.8776 152.831 42.1706 153.277 42.3683 153.767C42.5661 154.257 42.6649 154.781 42.6589 155.31V175.609C42.6649 176.138 42.5661 176.662 42.3683 177.152C42.1706 177.643 41.8776 178.088 41.5066 178.464C41.1356 178.84 40.6937 179.139 40.2068 179.342C39.7198 179.546 39.1973 179.651 38.6696 179.651C37.5995 179.651 36.5732 179.225 35.8166 178.467C35.0599 177.709 34.6349 176.681 34.6349 175.609L34.4535 155.31Z" fill="white"/>
<path d="M356.866 125.974H345.759C343.511 125.974 341.355 126.868 339.765 128.461C338.175 130.053 337.282 132.213 337.282 134.466H346.349C346.349 134.622 346.287 134.772 346.176 134.883C346.066 134.994 345.916 135.056 345.759 135.056H356.866C356.717 135.056 356.574 135.001 356.465 134.899C356.355 134.798 356.288 134.66 356.277 134.511H365.343C365.349 133.392 365.135 132.283 364.711 131.247C364.288 130.212 363.664 129.27 362.877 128.477C362.089 127.683 361.152 127.054 360.121 126.624C359.089 126.195 357.983 125.974 356.866 125.974V125.974Z" fill="white"/>
<path d="M453.789 195.772C455.316 168.989 453.243 142.122 447.624 115.892L446.944 112.759C446.944 111.941 429.536 29.3363 405.826 12.1705C404.149 10.8989 389.008 0 373.685 0H72.5338C55.5722 0.0360319 39.3163 6.80475 27.3269 18.8235C15.3375 30.8422 8.592 47.1311 8.56805 64.1221V195.818H0V229.877H14.2801C20.2641 237.007 29.9655 244 39.0776 244H88C88 241.5 88.1738 238.736 88.1738 237.415C88.1738 229.803 91.1924 222.503 96.5655 217.121C101.939 211.738 109.226 208.715 116.825 208.715C124.423 208.715 131.711 211.738 137.084 217.121C142.457 222.503 145.476 229.803 145.476 237.415C145.592 239.603 145.5 242 145.588 243.955H318.695V237.37C318.718 233.329 319.591 229.339 321.258 225.659C322.924 221.979 325.346 218.693 328.366 216.014C331.386 213.335 334.935 211.324 338.783 210.112C342.631 208.9 346.691 208.514 350.697 208.98C354.704 209.445 358.568 210.752 362.037 212.814C365.505 214.877 368.501 217.648 370.829 220.948C373.156 224.249 374.763 228.003 375.544 231.967C376.325 235.931 376 240 375.871 243.955H448.485L448.984 240.004C448.984 240.004 449.619 234.645 450.299 229.831H460V195.772H453.789ZM222.135 9.08245H316.202V110.715H222.135V9.08245ZM113.606 9.08245H213.068V110.715H113.606V9.08245ZM17.6348 64.1221C17.6587 49.5399 23.4489 35.5611 33.738 25.2457C44.0271 14.9303 57.9768 9.11846 72.5338 9.08245H104.267V110.715H17.6348V64.1221ZM9.06672 220.749V204.855H31.4162L38.2162 220.749H9.06672ZM316.655 215.163C312.465 220.928 309.983 227.759 309.492 234.872H154.542C153.881 225.339 149.634 216.413 142.659 209.895C135.684 203.376 126.5 199.751 116.961 199.751C107.422 199.751 98.2376 203.376 91.2625 209.895C84.2874 216.413 80.0405 225.339 79.3791 234.872H39.0776C34.6861 234.492 30.528 232.727 27.2002 229.831H51.771L37.3095 195.772H17.6348V119.798H316.836L316.655 215.163ZM325.269 9.08245H373.685C383.412 9.96649 392.695 13.5698 400.477 19.4819C416.797 31.3344 432.21 87.1007 437.243 110.715H325.269V9.08245ZM440.461 234.872H384.656C384.231 228.215 382.05 221.79 378.336 216.253C374.622 210.717 369.507 206.266 363.515 203.357C357.522 200.448 350.866 199.184 344.226 199.695C337.587 200.205 331.201 202.471 325.722 206.262V119.979H439.056C444.249 144.886 446.154 170.368 444.723 195.772H423.28L409.68 229.831H441.413C440.869 231.602 440.643 233.374 440.461 234.872ZM450.933 220.749H423.008L429.4 204.855H450.933V220.749Z" fill="white"/>
</svg>
