<svg width="608" height="127" viewBox="0 0 708 227" fill="none" xmlns="http://www.w3.org/2000/svg">
<g clip-path="url(#clip0_11_46)">
<path d="M596.35 146.737C595.343 136.632 602.32 126.751 611.805 123.376C619.277 120.729 632.7 121.53 639.622 127.795C645.903 119.461 656.835 114.856 667.109 117.969C677.418 121.102 684.304 131.039 685.073 141.573C690.42 140.436 696.152 141.722 700.62 145.246C707.194 150.466 709.447 159.825 707.103 167.824C704.74 175.878 698.038 181.788 690.274 184.212C682.747 186.542 674.763 185.219 667.804 181.788C663.263 190.793 652.331 195.342 642.479 193.664C636.307 192.62 630.759 189.525 625.924 185.591C624.697 184.585 622.665 183.261 621.841 181.863C621.401 182.18 620.962 182.478 620.522 182.758C617.922 184.38 614.973 185.666 612.007 186.337C600.195 189.022 586.516 182.739 583.568 170.042C581.151 159.751 586.919 149.068 596.35 146.737Z" fill="#7737FF"/>
</g>
<g clip-path="url(#clip1_11_46)">
<path d="M462.427 25.1029C461.565 16.5726 467.538 8.23124 475.657 5.38257C482.053 3.1477 493.543 3.82446 499.468 9.1126C504.845 2.07749 514.203 -1.80992 522.997 0.818408C531.822 3.46248 537.716 11.8511 538.374 20.7434C542.952 19.7833 547.858 20.8693 551.683 23.8438C557.31 28.2506 559.238 36.1513 557.232 42.9032C555.21 49.7022 549.473 54.6913 542.826 56.7373C536.384 58.7046 529.549 57.5872 523.593 54.6913C519.705 62.293 510.347 66.1332 501.914 64.7167C496.631 63.8354 491.881 61.2228 487.743 57.9019C486.693 57.0521 484.953 55.9346 484.247 54.7542C483.871 55.0218 483.495 55.2736 483.119 55.5097C480.893 56.8789 478.369 57.9649 475.83 58.5315C465.719 60.7978 454.01 55.494 451.486 44.776C449.417 36.0884 454.355 27.0702 462.427 25.1029Z" fill="#7737FF"/>
</g>
<g clip-path="url(#clip2_11_46)">
<path d="M11.4273 187.103C10.5652 178.573 16.5375 170.231 24.6573 167.383C31.0529 165.148 42.5429 165.824 48.4682 171.113C53.8449 164.077 63.203 160.19 71.9969 162.818C80.8221 165.462 86.7161 173.851 87.3744 182.743C91.9516 181.783 96.858 182.869 100.683 185.844C106.31 190.251 108.238 198.151 106.232 204.903C104.21 211.702 98.4726 216.691 91.8262 218.737C85.3837 220.705 78.5492 219.587 72.5926 216.691C68.7051 224.293 59.3469 228.133 50.9136 226.717C45.631 225.835 40.8813 223.223 36.743 219.902C35.6928 219.052 33.9528 217.935 33.2474 216.754C32.8712 217.022 32.495 217.274 32.1188 217.51C29.8929 218.879 27.3692 219.965 24.8298 220.531C14.7192 222.798 3.00966 217.494 0.485932 206.776C-1.58321 198.088 3.35452 189.07 11.4273 187.103Z" fill="#7737FF"/>
</g>
<g clip-path="url(#clip3_11_46)">
<path d="M328.515 158.289C328.023 153.434 331.428 148.685 336.057 147.064C339.703 145.792 346.253 146.177 349.631 149.187C352.697 145.183 358.032 142.97 363.045 144.466C368.076 145.971 371.436 150.746 371.812 155.808C374.421 155.261 377.218 155.879 379.399 157.573C382.607 160.081 383.706 164.578 382.562 168.422C381.409 172.292 378.139 175.132 374.35 176.297C370.677 177.416 366.78 176.78 363.385 175.132C361.168 179.459 355.833 181.645 351.025 180.839C348.014 180.337 345.306 178.85 342.947 176.96C342.348 176.476 341.356 175.84 340.954 175.168C340.74 175.32 340.525 175.463 340.311 175.598C339.042 176.377 337.603 176.995 336.155 177.318C330.391 178.608 323.716 175.589 322.277 169.488C321.097 164.543 323.912 159.409 328.515 158.289Z" fill="#7737FF"/>
</g>
<g clip-path="url(#clip4_11_46)">
<path d="M153.359 71.7857C152.578 64.0428 157.992 56.4714 165.353 53.8857C171.151 51.8571 181.567 52.4714 186.938 57.2714C191.813 50.8857 200.296 47.3571 208.268 49.7428C216.269 52.1428 221.612 59.7571 222.209 67.8286C226.358 66.9571 230.806 67.9428 234.273 70.6428C239.375 74.6428 241.123 81.8143 239.304 87.9429C237.471 94.1143 232.27 98.6428 226.244 100.5C220.404 102.286 214.208 101.271 208.808 98.6428C205.284 105.543 196.8 109.029 189.155 107.743C184.366 106.943 180.061 104.571 176.309 101.557C175.357 100.786 173.78 99.7714 173.14 98.7C172.799 98.9428 172.458 99.1714 172.117 99.3857C170.099 100.629 167.811 101.614 165.509 102.129C156.344 104.186 145.728 99.3714 143.441 89.6428C141.565 81.7571 146.041 73.5714 153.359 71.7857Z" fill="#7737FF"/>
</g>
<defs>
<clipPath id="clip0_11_46">
<rect width="125" height="77" fill="white" transform="matrix(-1 -8.74228e-08 -8.74228e-08 1 708 117)"/>
</clipPath>
<clipPath id="clip1_11_46">
<rect width="107" height="65" fill="white" transform="matrix(-1 -8.74228e-08 -8.74228e-08 1 558 0)"/>
</clipPath>
<clipPath id="clip2_11_46">
<rect width="107" height="65" fill="white" transform="matrix(-1 -8.74228e-08 -8.74228e-08 1 107 162)"/>
</clipPath>
<clipPath id="clip3_11_46">
<rect width="61" height="37" fill="white" transform="matrix(-1 -8.74228e-08 -8.74228e-08 1 383 144)"/>
</clipPath>
<clipPath id="clip4_11_46">
<rect width="97" height="59" fill="white" transform="matrix(-1 -8.74228e-08 -8.74228e-08 1 240 49)"/>
</clipPath>
</defs>
</svg>
