<svg width="20" height="20" viewBox="0 0 20 20" fill="none" xmlns="http://www.w3.org/2000/svg">
<path fill-rule="evenodd" clip-rule="evenodd" d="M9 10.4413V16.8354C5.61663 16.4536 2.92039 13.8031 2.46885 10.4413H9ZM11 10.4413V16.7934C14.2357 16.2885 16.7808 13.6988 17.2183 10.4413H11ZM17.2183 8.44134H11V2.08932C14.2357 2.59418 16.7808 5.18387 17.2183 8.44134ZM9 8.44134H2.46885C2.92039 5.07959 5.61663 2.42905 9 2.04729V8.44134ZM19.2849 9.44134C19.2849 14.6556 15.0579 18.8827 9.84358 18.8827C4.62927 18.8827 0.402237 14.6556 0.402237 9.44134C0.402237 4.22703 4.62927 0 9.84358 0C15.0579 0 19.2849 4.22703 19.2849 9.44134Z" fill="white"/>
</svg>
